<mxfile host="app.diagrams.net" modified="2021-10-28T09:13:21.429Z" agent="5.0 (Macintosh; Intel Mac OS X 10_15_7) AppleWebKit/537.36 (KHTML, like Gecko) Chrome/94.0.4606.71 Safari/537.36" etag="XuNfUMbq5rCPpWSfH65P" version="15.5.9" type="github">
  <diagram id="PoIaKgKIwCTSb3lPDVwJ" name="Page-1">
    <mxGraphModel dx="1298" dy="834" grid="1" gridSize="10" guides="1" tooltips="1" connect="1" arrows="1" fold="1" page="1" pageScale="1" pageWidth="850" pageHeight="1100" math="0" shadow="0">
      <root>
        <mxCell id="0" />
        <mxCell id="1" parent="0" />
        <mxCell id="ypq0xYkCftPl5n5OI9vC-3" value="" style="rounded=0;whiteSpace=wrap;html=1;align=left;" parent="1" vertex="1">
          <mxGeometry x="180" y="52.5" width="120" height="85" as="geometry" />
        </mxCell>
        <mxCell id="ypq0xYkCftPl5n5OI9vC-2" value="Circuit mode:&lt;br&gt;In this mode we cannot move segment&#39;s statuses&amp;nbsp;" style="text;html=1;strokeColor=none;fillColor=none;align=left;verticalAlign=middle;whiteSpace=wrap;rounded=0;" parent="1" vertex="1">
          <mxGeometry x="190" y="80" width="110" height="30" as="geometry" />
        </mxCell>
        <mxCell id="ypq0xYkCftPl5n5OI9vC-4" value="" style="rounded=0;whiteSpace=wrap;html=1;align=left;" parent="1" vertex="1">
          <mxGeometry x="490" y="18.130000000000003" width="170" height="153.75" as="geometry" />
        </mxCell>
        <mxCell id="ypq0xYkCftPl5n5OI9vC-5" value="Segment mode:&lt;br&gt;We can move both segment as well as circuit, also there is a functionality of groupby which will generate aggregated values of circuits in the given status" style="text;html=1;strokeColor=none;fillColor=none;align=left;verticalAlign=middle;whiteSpace=wrap;rounded=0;" parent="1" vertex="1">
          <mxGeometry x="500" y="60" width="120" height="70" as="geometry" />
        </mxCell>
        <mxCell id="ypq0xYkCftPl5n5OI9vC-6" value="" style="endArrow=classic;html=1;rounded=0;exitX=0.5;exitY=1;exitDx=0;exitDy=0;entryX=0.5;entryY=0;entryDx=0;entryDy=0;" parent="1" source="ypq0xYkCftPl5n5OI9vC-3" target="ypq0xYkCftPl5n5OI9vC-7" edge="1">
          <mxGeometry width="50" height="50" relative="1" as="geometry">
            <mxPoint x="400" y="360" as="sourcePoint" />
            <mxPoint x="240" y="240" as="targetPoint" />
          </mxGeometry>
        </mxCell>
        <mxCell id="ypq0xYkCftPl5n5OI9vC-7" value="" style="rounded=0;whiteSpace=wrap;html=1;align=left;" parent="1" vertex="1">
          <mxGeometry x="80" y="240" width="200" height="90" as="geometry" />
        </mxCell>
        <mxCell id="ofZAW5yFAUpxtVObOGaC-1" value="Update status CTAs will be removed from everywhere&lt;br&gt;&lt;br&gt;&amp;nbsp;&lt;br&gt;&lt;br&gt;" style="text;html=1;strokeColor=none;fillColor=none;align=left;verticalAlign=middle;whiteSpace=wrap;rounded=0;" parent="1" vertex="1">
          <mxGeometry x="100" y="250" width="160" height="80" as="geometry" />
        </mxCell>
        <mxCell id="ofZAW5yFAUpxtVObOGaC-2" value="" style="endArrow=classic;html=1;rounded=0;exitX=0.25;exitY=1;exitDx=0;exitDy=0;" parent="1" source="ypq0xYkCftPl5n5OI9vC-4" target="ofZAW5yFAUpxtVObOGaC-3" edge="1">
          <mxGeometry width="50" height="50" relative="1" as="geometry">
            <mxPoint x="400" y="210" as="sourcePoint" />
            <mxPoint x="240" y="440" as="targetPoint" />
          </mxGeometry>
        </mxCell>
        <mxCell id="ofZAW5yFAUpxtVObOGaC-3" value="" style="rounded=0;whiteSpace=wrap;html=1;align=left;" parent="1" vertex="1">
          <mxGeometry x="100" y="410" width="200" height="110" as="geometry" />
        </mxCell>
        <mxCell id="ofZAW5yFAUpxtVObOGaC-4" value="Wherever we need to show circuit details that will aggregated sum of segments under that status" style="text;html=1;strokeColor=none;fillColor=none;align=left;verticalAlign=middle;whiteSpace=wrap;rounded=0;" parent="1" vertex="1">
          <mxGeometry x="110" y="420" width="180" height="90" as="geometry" />
        </mxCell>
        <mxCell id="ofZAW5yFAUpxtVObOGaC-5" value="Groupby Circuits" style="text;html=1;strokeColor=none;fillColor=none;align=center;verticalAlign=middle;whiteSpace=wrap;rounded=0;rotation=-40;" parent="1" vertex="1">
          <mxGeometry x="340" y="260" width="110" height="30" as="geometry" />
        </mxCell>
        <mxCell id="ofZAW5yFAUpxtVObOGaC-6" value="" style="endArrow=classic;html=1;rounded=0;exitX=0.75;exitY=1;exitDx=0;exitDy=0;" parent="1" source="ypq0xYkCftPl5n5OI9vC-4" target="ofZAW5yFAUpxtVObOGaC-7" edge="1">
          <mxGeometry width="50" height="50" relative="1" as="geometry">
            <mxPoint x="400" y="180" as="sourcePoint" />
            <mxPoint x="600" y="360" as="targetPoint" />
          </mxGeometry>
        </mxCell>
        <mxCell id="ofZAW5yFAUpxtVObOGaC-7" value="" style="rounded=0;whiteSpace=wrap;html=1;align=left;" parent="1" vertex="1">
          <mxGeometry x="480" y="330" width="180" height="90" as="geometry" />
        </mxCell>
        <mxCell id="ofZAW5yFAUpxtVObOGaC-8" value="this segment instance will be different from that of circuit mode" style="text;html=1;strokeColor=none;fillColor=none;align=left;verticalAlign=middle;whiteSpace=wrap;rounded=0;" parent="1" vertex="1">
          <mxGeometry x="490" y="350" width="150" height="30" as="geometry" />
        </mxCell>
        <mxCell id="ofZAW5yFAUpxtVObOGaC-10" value="" style="rounded=0;whiteSpace=wrap;html=1;align=left;" parent="1" vertex="1">
          <mxGeometry x="335" y="560" width="120" height="60" as="geometry" />
        </mxCell>
        <mxCell id="ofZAW5yFAUpxtVObOGaC-11" value="Map View" style="text;html=1;strokeColor=none;fillColor=none;align=center;verticalAlign=middle;whiteSpace=wrap;rounded=0;" parent="1" vertex="1">
          <mxGeometry x="365" y="575" width="60" height="30" as="geometry" />
        </mxCell>
        <mxCell id="ofZAW5yFAUpxtVObOGaC-12" value="" style="endArrow=classic;html=1;rounded=0;exitX=0;exitY=1;exitDx=0;exitDy=0;" parent="1" source="ofZAW5yFAUpxtVObOGaC-10" target="ofZAW5yFAUpxtVObOGaC-13" edge="1">
          <mxGeometry width="50" height="50" relative="1" as="geometry">
            <mxPoint x="400" y="590" as="sourcePoint" />
            <mxPoint x="100" y="660" as="targetPoint" />
          </mxGeometry>
        </mxCell>
        <mxCell id="ofZAW5yFAUpxtVObOGaC-13" value="" style="rounded=0;whiteSpace=wrap;html=1;align=left;" parent="1" vertex="1">
          <mxGeometry x="10" y="680" width="270" height="200" as="geometry" />
        </mxCell>
        <mxCell id="ofZAW5yFAUpxtVObOGaC-15" value="&lt;h1&gt;&lt;font style=&quot;font-size: 18px&quot;&gt;Initial view&lt;/font&gt;&lt;/h1&gt;&lt;p&gt;user can access the initial view from toggle button&lt;/p&gt;&lt;p&gt;in initial view we will be showing all the feeder markers present in that status.&amp;nbsp;&lt;/p&gt;&lt;p&gt;on map list there will be 10 feeders loaded initially and it will be an infinite scroll setup to load the data on demand&lt;/p&gt;" style="text;html=1;strokeColor=none;fillColor=none;spacing=5;spacingTop=-20;whiteSpace=wrap;overflow=hidden;rounded=0;align=left;" parent="1" vertex="1">
          <mxGeometry x="20" y="690" width="260" height="190" as="geometry" />
        </mxCell>
        <mxCell id="ofZAW5yFAUpxtVObOGaC-16" value="" style="endArrow=classic;html=1;rounded=0;fontSize=18;exitX=0.5;exitY=1;exitDx=0;exitDy=0;" parent="1" source="ofZAW5yFAUpxtVObOGaC-10" target="ofZAW5yFAUpxtVObOGaC-17" edge="1">
          <mxGeometry width="50" height="50" relative="1" as="geometry">
            <mxPoint x="400" y="590" as="sourcePoint" />
            <mxPoint x="480" y="720" as="targetPoint" />
          </mxGeometry>
        </mxCell>
        <mxCell id="ofZAW5yFAUpxtVObOGaC-17" value="&lt;h1&gt;&lt;br&gt;&lt;/h1&gt;" style="rounded=0;whiteSpace=wrap;html=1;fontSize=18;align=left;" parent="1" vertex="1">
          <mxGeometry x="290" y="680" width="260" height="200" as="geometry" />
        </mxCell>
        <mxCell id="ofZAW5yFAUpxtVObOGaC-20" value="&lt;h1&gt;&lt;font style=&quot;font-size: 18px&quot;&gt;Feeder view&lt;/font&gt;&lt;/h1&gt;&lt;h1&gt;&lt;p style=&quot;font-weight: 400 ; font-size: 12px&quot;&gt;user can access the feeder view from either clicking on feeder marker, feeder card, mapview icon from the table view&lt;/p&gt;&lt;p style=&quot;font-weight: 400 ; font-size: 12px&quot;&gt;in feeder view feeder geometry with all its segment marker + geometry will be visible.&amp;nbsp;&lt;/p&gt;&lt;p style=&quot;font-weight: 400 ; font-size: 12px&quot;&gt;On map list feeder view will be enabled&amp;nbsp;&lt;/p&gt;&lt;/h1&gt;" style="text;html=1;strokeColor=none;fillColor=none;spacing=5;spacingTop=-20;whiteSpace=wrap;overflow=hidden;rounded=0;fontSize=12;align=left;" parent="1" vertex="1">
          <mxGeometry x="300" y="690" width="250" height="160" as="geometry" />
        </mxCell>
        <mxCell id="ofZAW5yFAUpxtVObOGaC-21" value="" style="rounded=0;whiteSpace=wrap;html=1;fontSize=12;align=left;" parent="1" vertex="1">
          <mxGeometry x="330" y="920" width="290" height="210" as="geometry" />
        </mxCell>
        <mxCell id="ofZAW5yFAUpxtVObOGaC-22" value="" style="curved=1;endArrow=classic;html=1;rounded=0;fontSize=12;entryX=0.75;entryY=0;entryDx=0;entryDy=0;exitX=1;exitY=0.75;exitDx=0;exitDy=0;" parent="1" source="ofZAW5yFAUpxtVObOGaC-10" target="ofZAW5yFAUpxtVObOGaC-21" edge="1">
          <mxGeometry width="50" height="50" relative="1" as="geometry">
            <mxPoint x="460" y="600" as="sourcePoint" />
            <mxPoint x="450" y="820" as="targetPoint" />
            <Array as="points">
              <mxPoint x="580" y="605" />
              <mxPoint x="630" y="800" />
            </Array>
          </mxGeometry>
        </mxCell>
        <mxCell id="ofZAW5yFAUpxtVObOGaC-23" value="&lt;h1&gt;&lt;font style=&quot;font-size: 18px&quot;&gt;&lt;br&gt;&lt;/font&gt;&lt;/h1&gt;&lt;h1&gt;&lt;font style=&quot;font-size: 18px&quot;&gt;Segment view&lt;/font&gt;&lt;/h1&gt;&lt;h1&gt;&lt;p style=&quot;font-weight: 400 ; font-size: 12px&quot;&gt;user can access the segment view from either clicking on segment marker, segment card, mapview icon from the table view&lt;/p&gt;&lt;p style=&quot;font-weight: 400 ; font-size: 12px&quot;&gt;in segment view segment geometry will be zoomed in and if span view is enable then will be showing span present in that segment (nc)&lt;/p&gt;&lt;p style=&quot;font-weight: 400 ; font-size: 12px&quot;&gt;On map list segment view will be enabled&amp;nbsp;&lt;/p&gt;&lt;/h1&gt;" style="text;html=1;strokeColor=none;fillColor=none;spacing=5;spacingTop=-20;whiteSpace=wrap;overflow=hidden;rounded=0;fontSize=12;align=left;" parent="1" vertex="1">
          <mxGeometry x="335" y="920" width="275" height="190" as="geometry" />
        </mxCell>
        <mxCell id="ofZAW5yFAUpxtVObOGaC-24" value="" style="rounded=0;whiteSpace=wrap;html=1;fontSize=12;align=left;" parent="1" vertex="1">
          <mxGeometry x="550" y="1190" width="290" height="210" as="geometry" />
        </mxCell>
        <mxCell id="ofZAW5yFAUpxtVObOGaC-25" value="" style="curved=1;endArrow=classic;html=1;rounded=0;fontSize=12;entryX=0.75;entryY=0;entryDx=0;entryDy=0;exitX=1.008;exitY=0.15;exitDx=0;exitDy=0;exitPerimeter=0;" parent="1" source="ofZAW5yFAUpxtVObOGaC-10" target="ofZAW5yFAUpxtVObOGaC-24" edge="1">
          <mxGeometry width="50" height="50" relative="1" as="geometry">
            <mxPoint x="465" y="615" as="sourcePoint" />
            <mxPoint x="460" y="830" as="targetPoint" />
            <Array as="points">
              <mxPoint x="695" y="590" />
              <mxPoint x="800" y="800" />
            </Array>
          </mxGeometry>
        </mxCell>
        <mxCell id="ofZAW5yFAUpxtVObOGaC-26" value="&lt;h1&gt;&lt;font style=&quot;font-size: 18px&quot;&gt;&lt;br&gt;&lt;/font&gt;&lt;/h1&gt;&lt;h1&gt;&lt;font style=&quot;font-size: 18px&quot;&gt;Span view&lt;/font&gt;&lt;/h1&gt;&lt;h1&gt;&lt;p style=&quot;font-weight: 400 ; font-size: 12px&quot;&gt;&lt;span&gt;This will be available as a layer that will be off by default and the user can enable it beyond a certain zoom level and if there is any feeder selected then only those spans will be visible which is linked to that feeder. This will also be connected with the span info modal.&lt;/span&gt;&lt;br&gt;&lt;/p&gt;&lt;/h1&gt;" style="text;html=1;strokeColor=none;fillColor=none;spacing=5;spacingTop=-20;whiteSpace=wrap;overflow=hidden;rounded=0;fontSize=12;align=left;" parent="1" vertex="1">
          <mxGeometry x="560" y="1190" width="275" height="190" as="geometry" />
        </mxCell>
      </root>
    </mxGraphModel>
  </diagram>
</mxfile>
